<svg xmlns="http://www.w3.org/2000/svg">
<g>
  <path
    fill-rule="evenodd"
    clip-rule="evenodd"
    d="m2.18 11.103-.018-.11c-.157-.789-.165-5.1-.162-6.747.001-.392.228-.745.581-.908L9.582.092a.993.993 0 0 1 .836 0l7 3.246a1 1 0 0 1 .581.908c.004 1.647-.002 5.958-.153 6.747l-.018.11c-.995 5.355-4.638 7.763-7.517 8.843l-.008.003a.897.897 0 0 1-.605-.003c-2.88-1.08-6.514-3.479-7.518-8.843Zm14.19-.374-.02.113c-.844 4.513-3.81 6.601-6.346 7.604-2.534-1.002-5.493-3.082-6.346-7.605l-.02-.118-.005-.026v-.001l-.008-.065a5.636 5.636 0 0 1-.02-.205 19.219 19.219 0 0 1-.036-.653 72.81 72.81 0 0 1-.048-1.855C3.503 6.715 3.5 5.428 3.5 4.576L10 1.563l6.5 3.013c0 .852-.002 2.14-.02 3.343-.01.686-.024 1.336-.045 1.858-.01.261-.022.482-.035.655a5.763 5.763 0 0 1-.018.207l-.009.07-.004.02Zm-1.824-2.132a.758.758 0 0 0 0-1.07.75.75 0 0 0-1.064 0l-3.984 4.001-1.976-1.985a.75.75 0 0 0-1.064 0 .758.758 0 0 0 0 1.07l2.508 2.519a.75.75 0 0 0 1.065 0l4.515-4.535Z"
  />
</g>
</svg>
