<svg xmlns="http://www.w3.org/2000/svg">
<g>
  <path
    d="M29.1 10.8994H15.3C14.6902 10.9002 14.1057 11.1427 13.6745 11.5739C13.2433 12.0051 13.0008 12.5896 13 13.1994V31.5994C13.0008 32.2092 13.2433 32.7937 13.6745 33.2249C14.1057 33.6561 14.6902 33.8987 15.3 33.8994H29.1C29.7098 33.8987 30.2943 33.6561 30.7255 33.2249C31.1567 32.7937 31.3992 32.2092 31.4 31.5994V13.1994C31.3992 12.5896 31.1567 12.0051 30.7255 11.5739C30.2943 11.1427 29.7098 10.9002 29.1 10.8994V10.8994ZM18.75 30.4494H16.45V28.1494H18.75V30.4494ZM18.75 25.8494H16.45V23.5494H18.75V25.8494ZM18.75 21.2494H16.45V18.9494H18.75V21.2494ZM27.95 30.4494H21.05V28.1494H27.95V30.4494ZM27.95 25.8494H21.05V23.5494H27.95V25.8494ZM27.95 21.2494H21.05V18.9494H27.95V21.2494ZM27.95 16.6494H21.05V14.3494H27.95V16.6494ZM18.75 16.6494H16.45V14.3494H18.75V16.6494Z"
  />
</g>
</svg>
