<svg width="60" height="40" viewBox="0 0 60 40" fill="none" xmlns="http://www.w3.org/2000/svg">
<rect x="0.5" y="0.5" width="59" height="39" rx="2.5" fill="white" stroke="#D5DFFF"/>
<path d="M34.7353 11.4594H24.6318V29.5399H34.7353V11.4594Z" fill="#FF5F00"/>
<path d="M25.2731 20.5C25.2731 16.8264 27.0051 13.568 29.6673 11.4597C27.7108 9.92639 25.241 9 22.5468 9C16.164 9 11 14.143 11 20.5C11 26.8569 16.164 32 22.5468 32C25.241 32 27.7108 31.0736 29.6673 29.5402C27.0051 27.4639 25.2731 24.1736 25.2731 20.5Z" fill="#EB001B"/>
<path d="M48.3666 20.5C48.3666 26.8569 43.2027 32 36.8199 32C34.1256 32 31.6559 31.0736 29.6993 29.5402C32.3936 27.4319 34.0935 24.1736 34.0935 20.5C34.0935 16.8264 32.3615 13.568 29.6993 11.4597C31.6559 9.92639 34.1256 9 36.8199 9C43.2027 9 48.3666 14.175 48.3666 20.5Z" fill="#F79E1B"/>
</svg>
