<svg width="60" height="40" viewBox="0 0 60 40" fill="none" xmlns="http://www.w3.org/2000/svg">
<rect x="0.5" y="0.5" width="59" height="39" rx="2.5" fill="white" stroke="#D5DFFF"/>
<path d="M29.0176 15.8096C28.5636 16.0215 28.1135 16.2333 27.6595 16.4452C27.5611 16.0593 27.8184 15.9193 28.0832 15.7151C28.3026 15.541 28.5712 15.4427 28.715 15.0833C29.2068 13.8916 29.8877 12.7794 30.3757 11.5877C30.7578 10.6458 31.8171 10.1086 31.8511 8.98877C33.2773 10.8879 34.7414 12.7567 36.1109 14.6936C36.7237 15.5599 36.6859 16.57 36.126 17.4931C35.5093 18.5107 34.6317 19.0858 33.387 18.9534C33.3492 18.6696 33.7843 18.5902 33.6783 18.2459C33.3076 18.0114 32.8726 17.7352 32.8877 17.2321C32.9104 16.3279 32.3127 15.681 32.0365 14.9017C31.8284 14.3229 31.3631 14.3229 30.9016 14.6028C30.2622 14.9887 29.6456 15.4048 29.0176 15.8058V15.8096Z" fill="#DC2C27"/>
<path d="M31.8512 8.98862C31.8171 10.1084 30.7578 10.6456 30.3758 11.5876C29.8915 12.7792 29.2068 13.8915 28.715 15.0831C28.5675 15.4387 28.2989 15.5409 28.0832 15.7149C27.8222 15.923 27.5612 16.0592 27.6595 16.445C26.3052 17.2584 24.9508 18.0717 23.5927 18.8851L23.449 18.7603C25.4956 14.5838 27.546 10.4073 29.7099 6C30.5233 7.13492 31.1891 8.06177 31.8512 8.9924V8.98862Z" fill="#9F221E"/>
<path d="M40.31 29.5194C40.7526 28.4412 41.1045 27.5787 41.4714 26.6859H43.1208C42.4777 28.0402 41.9254 29.3454 41.2444 30.5786C40.7715 31.4412 40.8775 32.0919 41.5433 32.7501C42.2091 33.4122 42.8901 33.4122 43.6391 32.7917C43.6391 32.9885 43.6618 33.1057 43.6353 33.2117C43.4613 33.8888 43.3175 34.7022 42.4815 34.7703C41.653 34.8384 41.3579 34.0742 41.0855 33.4273C40.9191 33.0301 40.8018 32.6139 40.6618 32.194C40.2003 32.247 40.1511 32.6593 39.9771 32.9241C38.9595 34.4639 37.5332 35.1145 36.0843 34.6644C34.6808 34.2255 33.7048 32.6782 33.7729 30.9494C33.8183 29.7653 34.1436 28.6644 34.8889 27.7187C35.7212 26.6632 36.8372 26.2735 38.131 26.5156C39.3113 26.7351 39.8296 27.6203 40.083 28.706C40.1284 28.8914 40.1852 29.0768 40.3062 29.5156L40.31 29.5194ZM35.0667 31.8271C35.0856 32.1184 35.0894 32.4096 35.1272 32.6934C35.2142 33.3441 35.3996 33.9758 36.0692 34.2482C36.7766 34.5357 37.3819 34.2293 37.8851 33.7337C38.6152 33.0187 39.1864 32.1864 39.6139 31.252C39.9733 30.4689 39.9544 29.6783 39.6631 28.8838C39.3983 28.1537 38.9065 27.6354 38.1234 27.5068C37.3176 27.3744 36.6442 27.6468 36.1411 28.3202C35.3618 29.3605 35.044 30.5408 35.0629 31.8271H35.0667Z" fill="#DC2C27"/>
<path d="M22.8626 32.1487C22.4049 32.4022 22.2952 32.8183 22.0644 33.1323C21.0051 34.5585 19.7151 35.0995 18.3267 34.672C17.0064 34.2635 16.0077 32.841 16.0001 31.2257C15.9926 30.0189 16.2763 28.8726 17.0102 27.8701C17.8274 26.7503 18.9282 26.3077 20.275 26.5082C21.565 26.7011 22.0644 27.662 22.3481 28.7894C22.3897 28.9483 22.4238 29.1109 22.4805 29.3493C22.908 28.9369 22.9572 28.43 23.1463 27.9987C23.3317 27.575 23.502 27.1437 23.6835 26.7087C24.2132 26.6065 24.7239 26.6255 25.3405 26.6898C24.7012 28.0328 24.0959 29.3114 23.4906 30.5863C23.0026 31.6077 23.082 32.1336 23.8197 32.8183C24.478 33.4274 25.1514 33.3896 25.8664 32.7805C25.8664 32.981 25.8891 33.0983 25.8664 33.208C25.6999 33.8889 25.5562 34.6872 24.7277 34.7817C23.9257 34.8725 23.6381 34.1273 23.3582 33.5258C23.1577 33.0983 23.0366 32.6292 22.8664 32.1487H22.8626ZM17.294 31.7402C17.3167 32.0882 17.3204 32.4362 17.3696 32.7805C17.4566 33.4047 17.6647 33.9986 18.3078 34.237C18.9661 34.4829 19.56 34.271 20.0594 33.7906C20.9068 32.9734 21.5726 32.0201 21.966 30.9154C22.246 30.1286 22.1628 29.3076 21.7542 28.5548C21.0241 27.2194 19.3973 27.0643 18.4289 28.2522C17.6117 29.2585 17.2864 30.4463 17.294 31.7326V31.7402Z" fill="#DC2C27"/>
<path d="M34.0189 22.4489C34.1362 22.8045 34.1135 23.1147 34.0529 23.4438C33.2471 23.6859 32.1954 22.9634 31.6242 23.8372C31.1248 24.6052 31.454 25.5812 31.4199 26.5648H33.7465C33.9546 26.9053 33.8676 27.1588 33.8713 27.4992H31.4502V34.8573C30.9924 35.0578 30.5952 34.9481 30.0845 34.9708V27.5825C29.6003 27.5446 29.2333 27.5182 28.8664 27.4917C28.7075 27.2079 28.6848 26.9394 28.8247 26.6632C29.1955 26.4362 29.6494 26.7086 30.0088 26.4438C30.285 25.2483 29.5549 23.7767 30.7654 22.8574C31.715 22.1349 32.8991 22.2975 34.0189 22.4451V22.4489Z" fill="#DC2C27"/>
<path d="M27.8185 34.9139C27.4137 35.0274 27.024 35.0387 26.589 34.8874V22.3087C27.0013 22.1461 27.3721 22.2179 27.8185 22.2482V34.9139Z" fill="#DC2C27"/>
<path d="M29.0177 15.8094C29.6457 15.4084 30.2661 14.9923 30.9017 14.6064C31.367 14.3264 31.8323 14.3264 32.0366 14.9052C32.3127 15.6808 32.9105 16.3315 32.8878 17.2356C32.8764 17.7388 33.3077 18.0149 33.6784 18.2495C33.7844 18.5937 33.3493 18.6694 33.3871 18.9569C32.4452 18.9796 31.7453 18.5219 31.193 17.8106C30.7882 17.2886 30.4212 16.74 30.0202 16.218C29.7705 15.8926 29.3884 15.8548 29.0139 15.8132L29.0177 15.8094Z" fill="#9F221E"/>
</svg>
