<svg width="60" height="40" viewBox="0 0 60 40" fill="none" xmlns="http://www.w3.org/2000/svg">
<rect x="0.5" y="0.5" width="59" height="39" rx="2.5" fill="white" stroke="#D5DFFF"/>
<path d="M24.9396 25.5248C24.8663 25.4864 24.7826 25.4969 24.7058 25.4829C24.5523 25.4585 24.4057 25.4201 24.2556 25.3817C23.9974 25.3154 23.7566 25.2107 23.5228 25.0851C23.3379 24.9874 23.1634 24.8688 22.9994 24.7396C22.8633 24.6315 22.7551 24.5023 22.6539 24.3663C22.5981 24.293 22.6016 24.286 22.6609 24.2127C22.8633 23.9615 23.0657 23.7102 23.2681 23.459C23.2925 23.4275 23.3135 23.3927 23.3484 23.3717C23.4321 23.4729 23.5159 23.5706 23.5996 23.6718C23.7462 23.8533 23.9311 23.9894 24.1196 24.122C24.2487 24.2092 24.3848 24.2825 24.5313 24.3314C24.7896 24.4116 25.0548 24.4256 25.327 24.3942C25.5154 24.3732 25.6968 24.3314 25.8713 24.2511C26.0109 24.1883 26.154 24.122 26.2657 24.0138C26.3808 23.9056 26.496 23.794 26.5692 23.6509C26.6704 23.4555 26.7472 23.2496 26.7926 23.0297C26.8519 22.7436 26.8659 22.4505 26.8554 22.1469C26.8065 22.1922 26.7891 22.2481 26.7716 22.2969C26.6809 22.5307 26.5448 22.7331 26.3634 22.9041C26.1296 23.1274 25.8434 23.2461 25.5328 23.3019C25.2502 23.3543 24.964 23.3473 24.6779 23.3089C24.4964 23.2845 24.3219 23.2391 24.1544 23.1623C24.0323 23.1065 23.9206 23.0367 23.816 22.9565C23.7462 22.9041 23.6659 22.8657 23.6136 22.7924C23.5473 22.7017 23.4879 22.604 23.4216 22.5133C23.296 22.3423 23.2472 22.1399 23.1843 21.941C23.1006 21.6653 23.0901 21.3826 23.0866 21.1C23.0866 19.9065 23.0866 18.7131 23.0866 17.5197C23.0866 17.5022 23.0866 17.4813 23.0866 17.4638C23.0831 17.4185 23.1076 17.4045 23.146 17.408C23.1599 17.408 23.1739 17.408 23.1913 17.408C23.5822 17.408 23.9765 17.408 24.3673 17.408C24.4755 17.408 24.465 17.401 24.465 17.5092C24.465 18.4967 24.465 19.4878 24.465 20.4753C24.465 20.7336 24.472 20.9883 24.5139 21.2396C24.5488 21.4489 24.6255 21.6548 24.7791 21.8084C24.8593 21.8851 24.9605 21.9445 25.0722 21.9829C25.2537 22.0457 25.4386 22.0247 25.6201 22.0143C25.7597 22.0073 25.9027 21.9549 26.0319 21.8921C26.3215 21.7525 26.5134 21.5222 26.6321 21.2361C26.81 20.8069 26.8589 20.3567 26.8589 19.8961C26.8589 19.1039 26.8589 18.3153 26.8589 17.5231C26.8589 17.394 26.8414 17.4045 26.974 17.4045C27.3579 17.4045 27.7452 17.4045 28.1291 17.4045C28.15 17.4045 28.1745 17.4045 28.1954 17.4045C28.2268 17.4045 28.2408 17.4185 28.2408 17.4499C28.2408 17.4743 28.2408 17.5022 28.2408 17.5266C28.2408 19.1493 28.2408 20.772 28.2408 22.3946C28.2408 22.611 28.2303 22.8273 28.1919 23.0402C28.157 23.2321 28.1186 23.4206 28.0558 23.6055C27.9197 24.0103 27.7173 24.3732 27.4137 24.6698C27.1381 24.942 26.817 25.1409 26.4506 25.2805C26.2482 25.3573 26.0388 25.4131 25.8295 25.4655C25.7283 25.4899 25.6201 25.4899 25.5154 25.5143H24.9431L24.9396 25.5248Z" fill="#322D3C"/>
<path d="M29.2701 25.5249C29.2561 25.4866 29.2631 25.4447 29.2631 25.4063C29.2631 22.7856 29.2631 20.1649 29.2631 17.5407C29.2631 17.5268 29.2631 17.5128 29.2631 17.4954C29.2631 17.4151 29.2631 17.4116 29.3468 17.4116C29.7482 17.4116 30.1529 17.4116 30.5542 17.4116C30.6345 17.4116 30.638 17.4116 30.638 17.4954C30.638 17.7257 30.638 17.956 30.638 18.1863V18.3154C30.6729 18.2701 30.6973 18.2456 30.7148 18.2177C30.8264 18.0607 30.9521 17.9176 31.1126 17.8059C31.2801 17.6873 31.4546 17.5826 31.6535 17.5163C31.9815 17.4046 32.313 17.3907 32.648 17.436C32.7946 17.457 32.9376 17.4954 33.0772 17.5407C33.3983 17.6454 33.674 17.8269 33.9008 18.0746C34.0508 18.2421 34.173 18.4271 34.2707 18.633C34.344 18.7865 34.3963 18.9505 34.4626 19.1076C34.508 19.2157 34.5219 19.3309 34.5463 19.4426C34.6371 19.8509 34.651 20.2696 34.6336 20.6849C34.6231 20.9222 34.5917 21.156 34.5394 21.3863C34.501 21.5642 34.4486 21.7387 34.3858 21.9097C34.2742 22.2063 34.1136 22.475 33.8833 22.7019C33.7751 22.8065 33.667 22.9042 33.5413 22.9845C33.3285 23.1241 33.0947 23.2183 32.8469 23.2707C32.6096 23.3195 32.3723 23.337 32.1281 23.323C31.9431 23.3125 31.7686 23.2707 31.5976 23.2113C31.3952 23.1415 31.2138 23.0264 31.0393 22.9008C30.8823 22.7891 30.7741 22.639 30.6554 22.482C30.631 22.5239 30.6415 22.5658 30.6415 22.6007C30.6415 23.5254 30.6415 24.4536 30.6415 25.3784C30.6415 25.4237 30.6415 25.4656 30.638 25.511H29.2736L29.2701 25.5249ZM33.2587 20.4197C33.2657 20.123 33.2168 19.8299 33.1156 19.5507C32.9795 19.1634 32.7527 18.8668 32.3409 18.7272C32.0967 18.6434 31.8629 18.6469 31.6221 18.7028C31.3778 18.7621 31.1894 18.9087 31.0358 19.1041C30.9311 19.2402 30.8474 19.3902 30.7881 19.5507C30.7357 19.7008 30.6973 19.8613 30.6834 20.0218C30.6485 20.3743 30.6485 20.7267 30.7357 21.0757C30.7846 21.2711 30.8648 21.4526 30.9765 21.6201C31.1161 21.8329 31.3045 21.99 31.5453 22.0737C31.7861 22.161 32.0338 22.1645 32.2816 22.0982C32.6166 22.0039 32.8644 21.7946 33.0214 21.4875C33.1017 21.3304 33.154 21.1664 33.1924 20.9919C33.2343 20.8 33.2517 20.6116 33.2552 20.4197H33.2587Z" fill="#322D3C"/>
<path d="M5 20.5799C5.01047 20.5485 5.02094 20.5171 5.02792 20.4892C5.05583 20.4822 5.06281 20.5031 5.06979 20.5171C5.31058 21.0824 5.70839 21.5081 6.2423 21.8082C6.42725 21.9129 6.61917 22.0072 6.82506 22.063C7.22985 22.1712 7.63814 22.234 8.05689 22.1851C8.41981 22.1432 8.7583 22.0351 9.04794 21.8117C9.24684 21.6582 9.4283 21.4837 9.53997 21.2499C9.55043 21.229 9.55742 21.2011 9.58533 21.1871C9.64466 21.208 9.70049 21.2499 9.75632 21.2813C10.032 21.4453 10.3112 21.6093 10.5868 21.7768C10.6601 21.8222 10.6601 21.8222 10.6287 21.9025C10.5066 22.1781 10.3251 22.4119 10.1018 22.6109C9.6307 23.0366 9.06887 23.2774 8.44423 23.3716C8.02199 23.4379 7.60673 23.4135 7.18798 23.3332C6.70642 23.239 6.19693 22.9773 5.85495 22.6632C5.65256 22.4783 5.49552 22.2619 5.35245 22.0316C5.20938 21.8013 5.14307 21.543 5.07328 21.2848C5.04187 21.1662 5.03839 21.0405 5.02094 20.9149C5.01745 20.8905 5.00698 20.8661 5.00349 20.8416C5.00349 20.7544 5.00349 20.6671 5.00349 20.5764L5 20.5799Z" fill="#27B25E"/>
<path d="M15.2211 18.2595C15.2211 18.0083 15.2211 17.771 15.2211 17.5337C15.2211 17.5093 15.2211 17.4813 15.2211 17.4569C15.2211 17.422 15.2385 17.4116 15.2665 17.4116C15.2874 17.4116 15.3118 17.4116 15.3328 17.4116C15.7166 17.4116 16.1005 17.4116 16.4878 17.4116C16.5088 17.4116 16.5332 17.4116 16.5541 17.4116C16.5855 17.4116 16.603 17.422 16.603 17.4569C16.603 17.4813 16.603 17.5093 16.603 17.5337C16.603 19.4251 16.603 21.3199 16.603 23.2113C16.603 23.3369 16.6204 23.3334 16.4878 23.3334C16.097 23.3334 15.7027 23.3334 15.3118 23.3334C15.2246 23.3334 15.2246 23.3334 15.2246 23.2427C15.2246 22.981 15.2246 22.7157 15.2246 22.4436C15.1862 22.4575 15.1757 22.4854 15.1618 22.5064C14.9733 22.7716 14.736 22.974 14.4464 23.124C14.066 23.3229 13.6647 23.3578 13.2495 23.3125C13.1553 23.302 13.061 23.2915 12.9703 23.2706C12.8866 23.2497 12.7993 23.2252 12.7156 23.1903C12.5446 23.1205 12.3806 23.0298 12.234 22.9146C11.9967 22.7332 11.8048 22.5133 11.6617 22.2516C11.5326 22.0178 11.4279 21.777 11.3616 21.5153C11.2115 20.9116 11.1941 20.3044 11.2604 19.6903C11.2883 19.4425 11.3442 19.2052 11.4209 18.9714C11.5221 18.6643 11.6792 18.3851 11.8815 18.1339C12.0874 17.8757 12.3526 17.7012 12.6562 17.5756C13.0087 17.4325 13.3751 17.3871 13.752 17.415C13.916 17.4255 14.0765 17.4674 14.2335 17.5197C14.4045 17.5791 14.5581 17.6558 14.7081 17.7535C14.8826 17.8687 15.0187 18.0118 15.1513 18.1688C15.1722 18.1932 15.1827 18.2246 15.2281 18.2525L15.2211 18.2595ZM12.6039 20.2975C12.6039 20.4719 12.6144 20.615 12.6318 20.7616C12.6702 21.0756 12.7679 21.3653 12.9598 21.62C13.2774 22.0423 13.6927 22.1609 14.1742 22.0667C14.5162 22.0004 14.7709 21.7805 14.9384 21.47C15.0361 21.285 15.099 21.0896 15.1443 20.8837C15.2176 20.5522 15.2141 20.2207 15.1653 19.8857C15.1443 19.7426 15.099 19.6065 15.0536 19.4704C14.9664 19.2087 14.8128 18.9993 14.5999 18.8283C14.4394 18.7027 14.251 18.6434 14.0521 18.619C13.6229 18.5701 13.2669 18.6992 12.9877 19.0342C12.8412 19.2087 12.74 19.4111 12.6842 19.6274C12.6283 19.8543 12.5969 20.0846 12.6074 20.294L12.6039 20.2975Z" fill="#322D3C"/>
<path d="M39.2294 18.2699C39.2294 18.0117 39.2294 17.7744 39.2294 17.5371C39.2294 17.401 39.212 17.415 39.3516 17.415C39.7389 17.415 40.1298 17.415 40.5171 17.415C40.6113 17.415 40.6113 17.415 40.6113 17.5127C40.6113 19.4215 40.6113 21.3268 40.6113 23.2356C40.6113 23.2531 40.6113 23.2705 40.6113 23.2914C40.6113 23.3228 40.5939 23.3368 40.566 23.3368C40.5485 23.3368 40.5311 23.3368 40.5101 23.3368C40.1193 23.3368 39.725 23.3368 39.3341 23.3368C39.2155 23.3368 39.2294 23.3438 39.2294 23.2286C39.2294 22.9739 39.2294 22.7157 39.2294 22.4539C39.1911 22.4574 39.1841 22.4888 39.1701 22.5098C38.9887 22.775 38.7479 22.9704 38.4652 23.1204C38.2768 23.2216 38.0814 23.288 37.8755 23.3194C37.701 23.3473 37.516 23.3403 37.3381 23.3228C37.1322 23.3054 36.9298 23.2705 36.7379 23.1937C36.5564 23.1204 36.3854 23.0297 36.2284 22.9111C35.9108 22.6668 35.6945 22.3527 35.5305 21.9933C35.4781 21.8782 35.4293 21.7595 35.3909 21.6409C35.3455 21.4978 35.3036 21.3442 35.2862 21.1942C35.2443 20.8034 35.2059 20.4125 35.2373 20.0182C35.2583 19.76 35.2792 19.5017 35.3455 19.254C35.3909 19.0795 35.4432 18.905 35.5235 18.7375C35.6247 18.5177 35.7468 18.3118 35.9004 18.1268C36.1446 17.8337 36.4622 17.6453 36.8216 17.5301C37.1322 17.4289 37.4532 17.3975 37.7743 17.4289C38.1372 17.4638 38.4757 17.5894 38.7723 17.8058C38.9154 17.9105 39.0445 18.0326 39.1457 18.1827C39.1631 18.2106 39.1876 18.2315 39.2259 18.2734L39.2294 18.2699ZM36.6122 20.3357C36.6227 20.6533 36.6436 20.9709 36.7693 21.271C36.86 21.4873 36.9821 21.6792 37.1566 21.8293C37.3974 22.0352 37.6835 22.1189 37.9976 22.091C38.3082 22.0666 38.5734 21.941 38.7793 21.7037C38.9293 21.5362 39.0236 21.3373 39.0899 21.1244C39.1492 20.9395 39.1876 20.7475 39.198 20.5521C39.2259 20.1089 39.1736 19.6797 38.9712 19.2749C38.7618 18.8562 38.4199 18.6328 37.9557 18.6084C37.5544 18.5875 37.2229 18.741 36.9717 19.0586C36.7867 19.2958 36.689 19.5715 36.6402 19.8612C36.6157 20.0147 36.5983 20.1717 36.6088 20.3323L36.6122 20.3357Z" fill="#322D3C"/>
<path d="M53.6275 18.2525C53.6275 17.9978 53.6275 17.7466 53.6275 17.4988C53.6275 17.415 53.6206 17.415 53.7113 17.415C54.1161 17.415 54.5174 17.415 54.9222 17.415C54.999 17.415 54.999 17.415 54.999 17.4953C54.999 17.5127 54.999 17.5302 54.999 17.5511C54.999 19.4355 54.999 21.3234 54.999 23.2078C54.999 23.3578 55.0199 23.3369 54.8733 23.3369C54.493 23.3369 54.1126 23.3369 53.7287 23.3369C53.6206 23.3369 53.631 23.3439 53.631 23.2357C53.631 22.9775 53.631 22.7157 53.631 22.4436C53.5612 22.4994 53.5263 22.5692 53.481 22.625C53.3135 22.8344 53.1076 22.9914 52.8738 23.117C52.4795 23.3334 52.0607 23.3648 51.6245 23.316C51.5373 23.3055 51.4465 23.295 51.3698 23.2741C51.286 23.2531 51.1953 23.2287 51.115 23.1938C50.9475 23.117 50.7835 23.0298 50.6335 22.9181C50.4555 22.782 50.302 22.6215 50.1763 22.4366C50.11 22.3389 50.0332 22.2412 49.9879 22.1365C49.9216 21.9829 49.8483 21.8329 49.8064 21.6689C49.7646 21.4979 49.7157 21.3269 49.6808 21.1559C49.6599 21.0617 49.6599 20.9605 49.6494 20.8628C49.6145 20.5103 49.618 20.1614 49.6494 19.8089C49.6773 19.5088 49.7401 19.2157 49.8413 18.9295C49.9425 18.6434 50.0891 18.3851 50.2775 18.1513C50.4869 17.8966 50.7521 17.7117 51.0557 17.5895C51.4291 17.443 51.8164 17.3941 52.2142 17.4325C52.3643 17.4464 52.5144 17.4918 52.6574 17.5407C52.818 17.593 52.9575 17.6733 53.0971 17.7605C53.2856 17.8792 53.4321 18.0397 53.5682 18.2107C53.5787 18.2246 53.5926 18.2386 53.6031 18.2525C53.6031 18.2525 53.6101 18.2525 53.6241 18.256L53.6275 18.2525ZM51.0103 20.2486C51.0103 20.4335 51.0173 20.6045 51.0383 20.772C51.0732 21.0442 51.1534 21.299 51.3035 21.5293C51.5233 21.8678 51.8269 22.0667 52.2352 22.0911C52.3748 22.0981 52.5144 22.0911 52.6435 22.0492C52.8145 21.9864 52.9785 21.9096 53.1111 21.7701C53.1983 21.6793 53.2786 21.5886 53.3379 21.4804C53.4565 21.2641 53.5333 21.0338 53.5717 20.7895C53.645 20.3044 53.6136 19.8333 53.4182 19.3727C53.3309 19.1668 53.2053 18.9993 53.0413 18.8597C52.8319 18.6783 52.5737 18.6085 52.305 18.612C51.9455 18.6155 51.635 18.7446 51.3977 19.0307C51.3209 19.1249 51.2476 19.2227 51.2023 19.3308C51.1395 19.4774 51.0766 19.6274 51.0592 19.788C51.0557 19.8368 51.0208 19.8857 51.0208 19.931C51.0278 20.0462 51.0068 20.1579 51.0138 20.2521L51.0103 20.2486Z" fill="#322D3C"/>
<path d="M43.7696 21.4207C43.8952 21.3614 44.0208 21.3055 44.1499 21.2462C44.3104 21.1694 44.4675 21.0822 44.6315 21.0159C44.6838 20.995 44.7362 20.9636 44.785 20.9356C44.8548 20.9008 44.8723 20.9042 44.8758 20.9775C44.8792 21.0613 44.9107 21.138 44.9351 21.2183C44.9979 21.4416 45.1375 21.6196 45.312 21.7662C45.5318 21.9476 45.7865 22.0523 46.0692 22.1012C46.3309 22.1465 46.5926 22.157 46.8578 22.1186C47.0777 22.0872 47.2836 22.0174 47.4616 21.8778C47.5662 21.7976 47.65 21.6964 47.6744 21.5603C47.7058 21.3718 47.65 21.2183 47.4616 21.1101C47.3499 21.0473 47.2312 21.0019 47.1056 20.9705C46.7532 20.8763 46.3902 20.824 46.0308 20.7612C45.7586 20.7158 45.4899 20.653 45.2247 20.5727C44.9246 20.4855 44.6664 20.3285 44.4221 20.1435C44.3384 20.0772 44.2895 19.9795 44.2302 19.8923C44.0452 19.6201 44.0034 19.3095 44.0173 18.9919C44.0243 18.8593 44.0383 18.7302 44.0906 18.6046C44.1883 18.3743 44.3244 18.1754 44.5128 18.0079C44.6385 17.8997 44.7711 17.8055 44.9176 17.7322C45.0747 17.6519 45.2387 17.5856 45.4132 17.5403C45.8633 17.4216 46.317 17.3867 46.7811 17.4112C47.0288 17.4251 47.2731 17.4635 47.5104 17.5333C47.7337 17.5961 47.9501 17.6764 48.1525 17.795C48.4212 17.952 48.648 18.1509 48.812 18.4162C48.9167 18.5837 48.976 18.7721 48.99 18.971C48.99 19.0129 48.9865 19.0408 48.9411 19.0582C48.6131 19.1978 48.2851 19.3374 47.9501 19.484C47.9187 19.3967 47.9082 19.306 47.8663 19.2257C47.7582 19.0164 47.5942 18.8663 47.3813 18.7756C47.2138 18.7023 47.0393 18.6465 46.8578 18.6186C46.5961 18.5802 46.3344 18.5767 46.0727 18.6186C45.9366 18.643 45.8075 18.6814 45.6819 18.7337C45.5702 18.7826 45.4725 18.8489 45.4201 18.9675C45.3608 19.1001 45.3852 19.2223 45.5004 19.313C45.6225 19.4107 45.7551 19.4735 45.9122 19.5084C46.0308 19.5328 46.1495 19.5503 46.2646 19.5956C46.3484 19.6305 46.4426 19.648 46.5368 19.655C46.6799 19.6619 46.8125 19.7038 46.9521 19.7282C47.1335 19.7631 47.315 19.805 47.493 19.8608C47.7931 19.9551 48.0967 20.0528 48.3619 20.2307C48.5852 20.3808 48.7701 20.5657 48.8818 20.81C49.0319 21.145 49.0598 21.494 48.9621 21.8464C48.8225 22.3524 48.5049 22.7153 48.0408 22.9631C47.7407 23.1236 47.4301 23.2283 47.1021 23.2807C46.6555 23.3504 46.2053 23.3609 45.7551 23.2946C45.5597 23.2667 45.3748 23.2178 45.1898 23.1585C45.0502 23.1132 44.9141 23.0573 44.7885 22.9701C44.642 22.8689 44.4954 22.7747 44.3593 22.656C44.2476 22.5583 44.1534 22.4432 44.0697 22.321C43.9894 22.2024 43.9091 22.0802 43.8638 21.9372C43.8114 21.7732 43.7661 21.6056 43.7626 21.4312H43.7696V21.4242V21.4207Z" fill="#322D3C"/>
<path d="M21.0382 21.5295C21.0836 21.3829 21.0208 21.2678 20.9196 21.1701C20.8428 21.0933 20.7451 21.0549 20.6439 21.02C20.4275 20.9432 20.2007 20.9083 19.9774 20.863C19.8204 20.8316 19.6633 20.8071 19.5063 20.7827C19.276 20.7478 19.0492 20.692 18.8223 20.6431C18.4978 20.5733 18.2047 20.4337 17.9325 20.2523C17.6882 20.0883 17.5312 19.8615 17.4509 19.5788C17.3951 19.3904 17.3951 19.1984 17.3881 19.0065C17.3811 18.832 17.4335 18.675 17.4963 18.5249C17.5521 18.3923 17.6394 18.2702 17.7406 18.1585C17.9604 17.9177 18.2256 17.7502 18.5292 17.6351C19.1469 17.4048 19.782 17.3664 20.4275 17.4432C20.6858 17.4746 20.9405 17.5339 21.1813 17.6281C21.4256 17.7258 21.6664 17.8445 21.8618 18.0329C21.9665 18.1341 22.0711 18.2388 22.134 18.3749C22.2107 18.5424 22.2945 18.7099 22.298 18.8983C22.298 18.9472 22.2875 18.9786 22.2421 18.9995C21.9665 19.1461 21.6908 19.2926 21.4151 19.4392C21.3279 19.4846 21.3174 19.4706 21.293 19.3729C21.2581 19.2333 21.1918 19.1112 21.0801 19.003C20.9824 18.9088 20.8812 18.8355 20.7625 18.7832C20.6195 18.7204 20.4729 18.661 20.3124 18.6401C20.2182 18.6296 20.1205 18.6052 20.0228 18.5947C19.7017 18.5668 19.3876 18.5947 19.091 18.7169C18.9445 18.7762 18.8084 18.8704 18.7735 19.0484C18.756 19.1461 18.7805 19.2298 18.8537 19.2961C18.927 19.3624 19.0143 19.4008 19.105 19.4427C19.276 19.5195 19.4574 19.5404 19.6354 19.5893C19.8518 19.6486 20.0786 19.673 20.2984 19.7219C20.4066 19.7463 20.5183 19.7533 20.623 19.8021C20.6823 19.83 20.7556 19.8335 20.8219 19.844C20.9929 19.8719 21.1464 19.9452 21.3034 20.0045C21.5303 20.0883 21.7466 20.2034 21.9316 20.3674C22.2247 20.6257 22.3713 20.9537 22.3957 21.341C22.4061 21.519 22.3957 21.6935 22.3433 21.861C22.2596 22.1367 22.127 22.3844 21.9141 22.5938C21.6629 22.8416 21.3697 23.0056 21.0487 23.1312C20.8777 23.1975 20.6928 23.215 20.5218 23.2813C20.1344 23.3162 19.7506 23.3545 19.3597 23.3162C19.1922 23.2987 19.0247 23.2847 18.8607 23.2359C18.7072 23.1905 18.5536 23.1452 18.4071 23.0824C18.2116 22.9986 18.0372 22.8869 17.8732 22.7578C17.6079 22.5519 17.4021 22.2937 17.2695 21.9831C17.2032 21.8226 17.1648 21.6551 17.1438 21.4841C17.1403 21.4457 17.1543 21.4283 17.1857 21.4073C17.2276 21.3794 17.2764 21.3655 17.3218 21.3445C17.6149 21.2015 17.9115 21.0619 18.2047 20.9223C18.2151 20.9188 18.2256 20.9153 18.2396 20.9118C18.2745 20.9746 18.264 21.0444 18.278 21.1107C18.3512 21.4004 18.5083 21.6307 18.7456 21.8086C18.9759 21.9831 19.2446 22.0704 19.5272 22.1122C19.7994 22.1541 20.0751 22.1541 20.3473 22.0948C20.5043 22.0599 20.6509 22.0041 20.787 21.9203C20.8568 21.8784 20.9126 21.8226 20.9615 21.7598C21.0103 21.7005 21.0382 21.6377 21.0347 21.5574C21.0452 21.5574 21.0592 21.5574 21.0627 21.5504C21.0661 21.5365 21.0557 21.533 21.0452 21.533L21.0382 21.5295Z" fill="#322D3C"/>
<path d="M7.74287 21.1629C7.59281 21.1698 7.38693 21.1384 7.18453 21.1245C7.12521 21.121 7.05891 21.1001 6.99609 21.0861C6.83906 21.0547 6.68552 21.0058 6.53547 20.9535C6.4238 20.9151 6.30515 20.8837 6.20744 20.8209C6.02947 20.7162 5.84453 20.615 5.68749 20.4789C5.62817 20.4266 5.55489 20.3917 5.49905 20.3323C5.37343 20.1997 5.27572 20.0462 5.17103 19.8996C5.15359 19.8752 5.15707 19.8508 5.16056 19.8263C5.16754 19.7252 5.1815 19.624 5.20593 19.5262C5.25478 19.3448 5.29666 19.1598 5.37692 18.9888C5.49208 18.7376 5.6177 18.4968 5.79567 18.2805C5.98062 18.0501 6.20395 17.8652 6.4552 17.7151C6.72041 17.5581 7.01005 17.4499 7.31365 17.3906C7.55792 17.3452 7.80568 17.3173 8.05344 17.3243C8.30469 17.3278 8.55246 17.3662 8.79673 17.436C9.18407 17.5476 9.52954 17.7361 9.8122 18.0292C9.99715 18.2176 10.1507 18.4305 10.2484 18.6748C10.388 19.0307 10.4438 19.3901 10.3496 19.7705C10.2903 20.0113 10.1856 20.2277 10.0181 20.4126C9.78079 20.6708 9.48418 20.8418 9.15267 20.95C8.71298 21.0966 8.26282 21.1559 7.74636 21.1594L7.74287 21.1629ZM7.74287 20.0532C7.83011 20.0532 7.91735 20.0602 8.00459 20.0532C8.22094 20.0357 8.4373 19.9973 8.6362 19.9066C8.91537 19.781 9.03751 19.4983 8.99563 19.261C8.95376 19.0168 8.80021 18.8493 8.58735 18.7411C8.40938 18.6504 8.21745 18.6015 8.01505 18.598C7.6312 18.591 7.27177 18.6678 6.95422 18.8911C6.70646 19.0656 6.53547 19.2959 6.42729 19.5751C6.38192 19.6937 6.39239 19.7182 6.50057 19.788C6.72739 19.9345 6.98213 19.9869 7.24036 20.0287C7.40437 20.0532 7.57537 20.0706 7.74287 20.0532Z" fill="#322D3C"/>
<path d="M41.5675 17.4254C41.6024 17.408 41.6373 17.415 41.6687 17.415C42.063 17.415 42.4608 17.415 42.8552 17.415C42.8726 17.415 42.8901 17.415 42.911 17.415C42.9459 17.415 42.9668 17.4289 42.9633 17.4673C42.9633 17.4882 42.9633 17.5127 42.9633 17.5336C42.9633 19.425 42.9633 21.3198 42.9633 23.2112C42.9633 23.2321 42.9633 23.2565 42.9633 23.2775C42.9633 23.3194 42.9494 23.3403 42.9075 23.3368C42.8901 23.3368 42.8726 23.3368 42.8517 23.3368C42.4643 23.3368 42.077 23.3368 41.6861 23.3368C41.5675 23.3368 41.5815 23.3368 41.5815 23.2286C41.5815 21.3408 41.5815 19.4529 41.5815 17.5615C41.5815 17.5196 41.5919 17.4743 41.5675 17.4289V17.4254Z" fill="#322D3C"/>
<path d="M42.262 16.7623C41.8153 16.7728 41.3686 16.3785 41.3791 15.8795C41.3861 15.4363 41.742 14.9931 42.2689 15.0001C42.7714 15.0071 43.1483 15.4014 43.1448 15.9004C43.1413 16.3575 42.7435 16.7763 42.2654 16.7623H42.262Z" fill="#27B25E"/>
<path d="M21.0382 21.5289C21.0382 21.5289 21.0591 21.5324 21.0557 21.5463C21.0522 21.5568 21.0382 21.5568 21.0277 21.5533C21.0277 21.5428 21.0208 21.5324 21.0347 21.5254L21.0382 21.5289Z" fill="#27B25E"/>
<path d="M43.7695 21.4209V21.4244H43.766L43.7695 21.4209Z" fill="#27B25E"/>
<path d="M33.2588 20.4194C33.2553 20.6113 33.2344 20.7998 33.196 20.9917C33.1576 21.1662 33.1053 21.3337 33.025 21.4872C32.868 21.7943 32.6202 22.0037 32.2852 22.0979C32.0374 22.1677 31.7897 22.1607 31.5489 22.0735C31.3081 21.9862 31.1197 21.8327 30.9801 21.6198C30.8684 21.4523 30.7882 21.2709 30.7393 21.0755C30.6521 20.7265 30.6521 20.3775 30.687 20.0216C30.7044 19.8611 30.7393 19.7006 30.7917 19.5505C30.8475 19.39 30.9312 19.2399 31.0394 19.1038C31.193 18.9049 31.3814 18.7584 31.6257 18.7025C31.863 18.6467 32.1003 18.6432 32.3445 18.727C32.7563 18.8665 32.9831 19.1632 33.1192 19.5505C33.2169 19.8297 33.2658 20.1228 33.2623 20.4194H33.2588Z" fill="white"/>
<path d="M12.6038 20.2973C12.5934 20.0879 12.6248 19.8576 12.6806 19.6308C12.7364 19.4144 12.8376 19.212 12.9842 19.0376C13.2599 18.7026 13.6193 18.5734 14.0485 18.6223C14.2509 18.6467 14.4394 18.7026 14.5964 18.8317C14.8093 18.9992 14.9663 19.212 15.05 19.4738C15.0954 19.6098 15.1408 19.7459 15.1617 19.889C15.2106 20.224 15.2141 20.552 15.1408 20.887C15.0954 21.0929 15.0326 21.2883 14.9349 21.4733C14.7709 21.7839 14.5126 22.0037 14.1707 22.07C13.6926 22.1642 13.2738 22.0456 12.9563 21.6233C12.7644 21.3686 12.6666 21.079 12.6283 20.7649C12.6108 20.6183 12.6003 20.4753 12.6003 20.3008L12.6038 20.2973Z" fill="white"/>
<path d="M36.6122 20.3322C36.6018 20.1752 36.6157 20.0146 36.6437 19.8611C36.6925 19.5715 36.7902 19.2958 36.9752 19.0585C37.2264 18.7409 37.5614 18.5874 37.9592 18.6083C38.4199 18.6328 38.7618 18.8561 38.9747 19.2748C39.1771 19.6796 39.2294 20.1089 39.2015 20.552C39.1876 20.7475 39.1492 20.9394 39.0933 21.1243C39.027 21.3337 38.9328 21.5361 38.7828 21.7036C38.5734 21.9409 38.3117 22.0665 38.0011 22.091C37.687 22.1154 37.3974 22.0316 37.1601 21.8292C36.9856 21.6792 36.86 21.4873 36.7728 21.2709C36.6471 20.9708 36.6297 20.6532 36.6157 20.3357L36.6122 20.3322Z" fill="white"/>
<path d="M51.0103 20.2486C51.0033 20.1544 51.0243 20.0427 51.0173 19.9276C51.0173 19.8822 51.0487 19.8334 51.0557 19.7845C51.0731 19.6205 51.136 19.4704 51.1988 19.3274C51.2441 19.2227 51.3174 19.1215 51.3942 19.0273C51.628 18.7411 51.9386 18.6155 52.3015 18.6085C52.5737 18.605 52.8284 18.6783 53.0378 18.8563C53.2018 18.9959 53.3274 19.1634 53.4147 19.3692C53.6066 19.8299 53.6415 20.301 53.5682 20.786C53.5298 21.0303 53.453 21.2606 53.3344 21.477C53.2751 21.5851 53.1948 21.6759 53.1076 21.7666C52.975 21.9062 52.8145 21.9864 52.64 22.0458C52.5109 22.0911 52.3713 22.0981 52.2317 22.0876C51.8234 22.0632 51.5163 21.8643 51.3 21.5258C51.1499 21.2955 51.0696 21.0408 51.0348 20.7686C51.0138 20.6011 51.0068 20.4336 51.0068 20.2451L51.0103 20.2486Z" fill="white"/>
<path d="M7.74277 20.0498C7.57527 20.0673 7.40427 20.0498 7.24026 20.0254C6.98203 19.987 6.72729 19.9312 6.50047 19.7846C6.39229 19.7148 6.38182 19.6904 6.42719 19.5718C6.53537 19.2926 6.70635 19.0623 6.95412 18.8878C7.27167 18.661 7.6311 18.5842 8.01495 18.5947C8.21735 18.5982 8.40928 18.647 8.58725 18.7378C8.80011 18.8459 8.95366 19.0134 8.99553 19.2577C9.03741 19.4985 8.91527 19.7811 8.6361 19.9033C8.43371 19.994 8.22084 20.0324 8.00449 20.0498C7.91725 20.0568 7.83001 20.0498 7.74277 20.0498Z" fill="white"/>
</svg>
