<svg width="60" height="40" viewBox="0 0 60 40" fill="none" xmlns="http://www.w3.org/2000/svg">
<rect x="0.5" y="0.5" width="59" height="39" rx="2.5" fill="white" stroke="#D5DFFF"/>
<path d="M30.9604 9.50739C30.9604 11.1232 29.4673 12.3043 27.8847 11.9195C27.6027 11.8498 27.4401 11.9062 27.2609 12.1219C25.6418 14.0296 24.0161 15.9275 22.3804 17.822C22.2145 18.0144 22.1846 18.1372 22.3206 18.3727C23.2696 20.0051 22.8548 21.893 21.3153 22.958C21.0897 23.1139 21.02 23.24 21.1129 23.5088C21.5841 24.899 22.0419 26.2958 22.4965 27.6926C22.5662 27.9016 22.6624 27.9978 22.9046 28.0244C24.1786 28.1571 25.1276 29.2122 25.1375 30.473C25.1508 31.7105 24.2317 32.7789 22.9942 32.9713C21.7765 33.1604 20.5688 32.3973 20.2337 31.1896C19.9849 30.3004 20.1574 29.4776 20.8077 28.8041C21.03 28.5751 21.0831 28.396 20.9802 28.0974C20.5257 26.7802 20.0745 25.463 19.6697 24.1292C19.5436 23.7178 19.3611 23.5619 18.9331 23.5121C17.4334 23.3429 16.2722 22.2115 16.0134 20.7417C15.5588 18.1405 18.0572 16.0237 20.539 16.9261C20.884 17.0522 21.0399 16.9759 21.2556 16.7204C22.8216 14.8691 24.3976 13.0276 25.9869 11.1962C26.2092 10.9374 26.2888 10.7416 26.1428 10.3966C25.748 9.46426 26.0002 8.36937 26.74 7.69916C27.5264 6.98582 28.4388 6.81329 29.4308 7.2048C30.3731 7.57971 30.9637 8.49212 30.9637 9.51071L30.9604 9.50739ZM21.3784 20.1478C21.3817 19.0396 20.5157 18.1537 19.4142 18.1438C18.2828 18.1338 17.3936 19.0164 17.3969 20.1411C17.3969 21.246 18.2795 22.1186 19.3877 22.1186C20.4991 22.1186 21.3784 21.2493 21.3817 20.1478H21.3784ZM28.4786 8.0409C27.6889 8.03094 27.0021 8.70779 27.0021 9.49744C27.0021 10.2738 27.6458 10.9374 28.4288 10.9573C29.2218 10.9805 29.9119 10.3203 29.9285 9.5273C29.9451 8.73765 29.2782 8.05085 28.4819 8.0409H28.4786ZM22.6557 29.0363C21.8761 29.0231 21.2058 29.6601 21.1826 30.4365C21.1594 31.2659 21.813 31.9527 22.6325 31.956C23.4122 31.956 24.0658 31.3157 24.0857 30.5294C24.1057 29.7231 23.462 29.0496 22.6591 29.0363H22.6557Z" fill="#008269"/>
<path d="M43.2134 29.7865C41.0203 29.7865 38.8272 29.7765 36.6341 29.7965C36.2625 29.7965 36.1828 29.687 36.1895 29.3386C36.2094 27.7891 36.206 26.2397 36.1895 24.6903C36.1895 24.3684 36.2326 24.2424 36.6042 24.2457C41.0369 24.2623 45.4695 24.2589 49.9022 24.2457C50.234 24.2457 50.3036 24.3485 50.3003 24.6604C50.2837 26.2397 50.2837 27.819 50.3003 29.3983C50.3036 29.7334 50.1875 29.7931 49.8823 29.7931C47.6593 29.7799 45.433 29.7865 43.2101 29.7865H43.2134ZM41.7436 27.0061C41.7436 27.5104 41.7436 28.0181 41.7436 28.5224C41.7436 28.6584 41.7203 28.821 41.9327 28.8144C42.7887 28.7945 43.648 28.8807 44.504 28.7679C44.9387 28.7115 45.2339 28.4594 45.3567 28.0347C45.4795 27.6133 45.3998 27.245 45.0282 26.9763C44.9254 26.9033 44.8922 26.8568 45.005 26.7473C45.3103 26.452 45.297 26.0838 45.151 25.7254C44.9951 25.3505 44.6533 25.251 44.2817 25.2477C43.5319 25.241 42.7787 25.251 42.0289 25.241C41.8099 25.241 41.7369 25.3107 41.7402 25.5297C41.7535 26.0207 41.7436 26.5118 41.7436 26.9995V27.0061ZM49.2618 28.0944C48.5717 28.0944 47.9181 28.0778 47.2645 28.101C46.9559 28.111 46.8763 28.0081 46.8862 27.7128C46.9062 26.9929 46.873 26.2729 46.9028 25.5562C46.9161 25.1979 46.7137 25.2477 46.5014 25.251C46.2857 25.2543 46.0501 25.1713 46.0601 25.5695C46.09 26.5483 46.0767 27.527 46.0634 28.5091C46.0634 28.7447 46.1298 28.8343 46.3753 28.8276C46.8498 28.811 47.3275 28.7878 47.7987 28.831C48.4224 28.8907 48.9035 28.7181 49.2652 28.0944H49.2618ZM38.2731 27.3114C38.7774 27.3114 39.2153 27.328 39.65 27.3047C39.9619 27.2881 40.0548 27.4109 40.0349 27.7029C40.0183 27.9783 40.0481 28.257 40.0315 28.529C40.0083 28.8542 40.2207 28.821 40.4231 28.8144C40.6221 28.8077 40.871 28.8973 40.8676 28.5357C40.8577 27.5237 40.8676 26.5118 40.8643 25.4998C40.8643 25.4136 40.8876 25.2842 40.7714 25.2709C40.5591 25.2477 40.3335 25.2178 40.1344 25.2709C39.9486 25.3207 40.0514 25.533 40.0382 25.6757C40.0249 25.8581 40.0183 26.044 40.0382 26.2264C40.0714 26.5416 39.9287 26.6511 39.64 26.6013C39.0561 26.4985 38.638 26.7407 38.2731 27.3114ZM37.9612 27.0858C37.9612 26.5649 37.9413 26.044 37.9678 25.5264C37.9844 25.1879 37.7688 25.241 37.583 25.2576C37.4038 25.2742 37.1284 25.1249 37.135 25.5131C37.145 26.5217 37.1483 27.5337 37.135 28.5423C37.1284 28.9106 37.3773 28.811 37.5697 28.8243C37.7953 28.8409 37.9911 28.8509 37.9711 28.5091C37.9446 28.038 37.9645 27.5602 37.9645 27.0858H37.9612Z" fill="#008269"/>
<path d="M15.9736 14.945C15.0081 16.1162 14.0526 17.3007 13.0672 18.452C12.8183 18.7407 12.8515 18.8933 13.0804 19.162C14.1223 20.3863 15.1375 21.6339 16.2092 22.9278C15.6153 22.9909 15.0712 22.951 14.5337 22.9577C14.3479 22.9577 14.2848 22.7951 14.1919 22.6823C13.4089 21.7168 12.6292 20.748 11.8462 19.7825C11.7633 19.6796 11.7069 19.5469 11.5177 19.4739C11.5177 20.4726 11.5177 21.4447 11.5177 22.4169C11.5177 22.9577 11.5177 22.9643 10.9869 22.9544C10.6849 22.9477 10.2968 23.0904 10.1043 22.8913C9.91189 22.6956 10.0446 22.3074 10.0446 22.0055C10.038 19.7626 10.0512 17.523 10.0346 15.2801C10.0346 14.9384 10.111 14.8057 10.4627 14.8488C10.7944 14.892 11.2224 14.7161 11.4414 14.9185C11.667 15.1242 11.5111 15.5555 11.5177 15.8873C11.531 16.667 11.521 17.45 11.521 18.316C11.677 18.1401 11.7898 18.024 11.8893 17.8979C12.6193 16.9888 13.3558 16.0831 14.0758 15.1673C14.2516 14.9417 14.4308 14.8256 14.7294 14.8455C15.1276 14.8754 15.5257 14.8521 15.9272 14.8521C15.9471 14.882 15.9637 14.9085 15.9836 14.9384L15.9736 14.945Z" fill="#008269"/>
<path d="M25.1906 17.547C25.6949 17.2252 26.2025 16.9166 26.8097 16.827C28.0572 16.6379 28.9729 17.3512 29.0094 18.6187C29.0426 19.906 29.0161 21.1966 29.026 22.484C29.026 22.7063 28.9597 22.7826 28.7407 22.766C28.3591 22.7394 27.8814 22.9153 27.6259 22.7029C27.3804 22.5006 27.5562 22.0128 27.5496 21.6479C27.5363 20.8814 27.5429 20.115 27.5429 19.3453C27.5429 19.1296 27.533 18.9173 27.4666 18.7082C27.3306 18.2636 27.042 18.048 26.5775 18.0812C26.3485 18.0978 26.1295 18.1707 25.9139 18.257C25.4361 18.4528 25.1707 18.7215 25.2072 19.3187C25.2735 20.3439 25.2171 21.3725 25.2304 22.401C25.2337 22.6731 25.1773 22.7958 24.8787 22.766C24.5901 22.7394 24.2948 22.7494 24.0061 22.766C23.8004 22.7759 23.7473 22.6996 23.7473 22.5006C23.754 20.7355 23.754 18.9703 23.7473 17.2086C23.7473 17.0062 23.8137 16.9299 24.0127 16.9498C24.1189 16.9597 24.2284 16.9498 24.3346 16.9498C24.7526 16.9498 25.038 17.1477 25.1906 17.5437V17.547Z" fill="#008269"/>
<path d="M31.0865 17.5331C31.5676 17.2345 32.042 16.9326 32.6193 16.8397C33.9332 16.6274 34.8423 17.3042 34.8921 18.638C34.9385 19.9253 34.902 21.216 34.912 22.5066C34.912 22.7123 34.8423 22.7754 34.6465 22.7654C34.3413 22.7521 34.0327 22.7455 33.7275 22.7654C33.4753 22.782 33.4189 22.6825 33.4222 22.4502C33.4322 21.4681 33.4256 20.486 33.4256 19.5006C33.4256 19.2551 33.4189 19.0096 33.3559 18.7707C33.2298 18.2598 32.8947 18.0176 32.3804 18.0872C32.2444 18.1038 32.1084 18.137 31.979 18.1801C31.2325 18.429 31.1064 18.6048 31.1064 19.3911C31.1064 20.3898 31.0931 21.3885 31.113 22.3839C31.1196 22.6924 31.0234 22.792 30.7248 22.7588C30.3764 22.7223 29.9252 22.9014 29.7062 22.6858C29.4873 22.4701 29.6399 22.0189 29.6366 21.6705C29.6299 20.2272 29.6432 18.784 29.6266 17.3407C29.6233 17.0156 29.7195 16.8928 30.0347 16.9426C30.0646 16.9459 30.0944 16.9426 30.1276 16.9426C30.5833 16.9426 30.9029 17.1372 31.0865 17.5265V17.5331Z" fill="#008269"/>
<path d="M38.5616 20.2643C38.0706 20.2643 37.5795 20.2842 37.0885 20.2576C36.7335 20.2377 36.7136 20.3771 36.7998 20.6624C37.0022 21.3193 37.5563 21.7175 38.346 21.7307C38.7806 21.7374 39.202 21.6511 39.5935 21.462C39.7793 21.3724 39.8722 21.3658 39.975 21.5781C40.3665 22.381 40.3433 22.4507 39.4674 22.7162C38.8071 22.9152 38.1336 22.9451 37.4667 22.8157C36.2557 22.5801 35.4893 21.7639 35.3035 20.4998C35.1874 19.7002 35.2504 18.9106 35.6286 18.1707C36.1031 17.245 37.0055 16.7307 38.0374 16.8037C39.1257 16.88 39.8689 17.4242 40.2471 18.456C40.4296 18.9537 40.4528 19.4713 40.4727 19.9955C40.4793 20.2278 40.3732 20.2775 40.1675 20.2742C39.63 20.2643 39.0958 20.2742 38.5583 20.2742L38.5616 20.2643ZM37.8616 19.239C38.1535 19.239 38.4455 19.2324 38.7342 19.239C38.9133 19.2457 38.973 19.1793 38.9598 18.9968C38.9166 18.4062 38.4654 17.9451 37.8981 17.9285C37.3042 17.9119 36.8065 18.3631 36.7501 18.9603C36.7335 19.1461 36.7667 19.2523 36.9856 19.2424C37.2776 19.2291 37.5663 19.2424 37.8582 19.2424L37.8616 19.239Z" fill="#008269"/>
<path d="M46.9192 19.9652C46.9192 19.3945 46.9093 18.9201 46.9226 18.4456C46.9292 18.2068 46.8827 18.0906 46.6007 18.084C45.8542 18.0707 45.8642 18.0541 45.8675 17.2811C45.8675 17.0256 45.9372 16.946 46.1993 16.9426C46.9159 16.9426 46.9126 16.9261 46.9192 16.2194C46.9292 15.4496 46.8064 15.642 47.5032 15.4231C48.3891 15.141 48.3924 15.1543 48.3924 16.0866C48.3924 16.6617 48.6799 16.9493 49.255 16.9493C49.9319 16.9493 50.1365 17.2623 49.8688 17.8882C49.8124 18.0176 49.7626 18.1039 49.6133 18.0906C49.5669 18.0873 49.5204 18.0873 49.474 18.0906C49.1289 18.1238 48.6843 17.938 48.4654 18.1902C48.2563 18.4324 48.4023 18.867 48.3957 19.2187C48.3857 19.786 48.3824 20.3534 48.3957 20.9208C48.4156 21.6374 48.7507 21.8995 49.4076 21.6109C49.8456 21.4184 49.9451 21.5843 50.0812 21.9194C50.3134 22.4967 50.3267 22.4868 49.7295 22.6958C49.2583 22.8617 48.7739 22.9082 48.2796 22.8617C47.5297 22.792 47.0486 22.3242 46.9491 21.5744C46.8761 21.0103 46.9358 20.4397 46.9159 19.9652H46.9192Z" fill="#008269"/>
<path d="M45.4992 18.4123C45.1309 18.2232 44.8025 18.0672 44.4375 18.0042C43.3194 17.8184 42.4269 18.5284 42.3638 19.6664C42.3605 19.7428 42.3572 19.8191 42.3572 19.8954C42.3638 21.196 43.1734 21.8761 44.4541 21.6538C44.5603 21.6373 44.6631 21.6041 44.7627 21.5709C45.3897 21.3619 45.3698 21.3685 45.6618 21.9956C45.7912 22.2776 45.7149 22.3904 45.4627 22.5099C44.5769 22.9246 43.6611 23.0042 42.7321 22.7288C41.5045 22.3639 40.7514 21.1396 40.8376 19.7461C40.9869 17.3838 43.1336 16.3718 45.0115 16.9657C45.3566 17.0752 45.5722 17.2311 45.5059 17.6459C45.466 17.8814 45.4992 18.127 45.4992 18.4156V18.4123Z" fill="#008269"/>
<path d="M27.9345 25.4892C27.9412 26.4082 27.2378 27.1216 26.3154 27.1282C25.3964 27.1348 24.6797 26.4281 24.6764 25.5091C24.6731 24.5934 25.3831 23.8701 26.2955 23.8667C27.2079 23.8601 27.9279 24.5734 27.9345 25.4892Z" fill="#008269"/>
<path d="M14.0294 29.4979C13.1137 29.4879 12.4169 28.7646 12.4269 27.8423C12.4368 26.9299 13.1568 26.2364 14.0858 26.2497C15.0082 26.2597 15.6983 26.973 15.685 27.902C15.6717 28.821 14.9551 29.5112 14.0294 29.4979Z" fill="#008269"/>
<path d="M30.2238 25.5955C30.2702 25.5988 30.3034 25.6088 30.3299 25.6021C31.2988 25.4097 31.9623 25.8145 32.0619 26.6572C32.1879 27.7057 31.6106 28.4389 30.6219 28.4854C30.5157 28.4887 30.4063 28.4887 30.3001 28.4854C29.7029 28.4522 29.6531 28.4024 29.6531 27.8185C29.6531 26.7302 29.6531 25.6419 29.6531 24.5537C29.6531 24.3679 29.6199 24.192 29.9152 24.1954C30.1939 24.1987 30.1939 24.3513 30.1972 24.5504C30.2039 24.8987 30.1607 25.2504 30.2238 25.5955ZM31.5277 26.9857C31.5343 26.2558 31.0499 25.8311 30.4328 26.0202C30.2934 26.0633 30.1873 26.1164 30.1906 26.2956C30.2005 26.7866 30.2005 27.2777 30.1906 27.7654C30.1873 27.9777 30.2968 28.0142 30.4726 28.0275C31.0964 28.0806 31.5211 27.6625 31.5277 26.9824V26.9857Z" fill="#008269"/>
<path d="M33.5449 27.7955C33.7705 27.1319 33.9895 26.5811 34.1421 26.0138C34.2383 25.6488 34.4175 25.5426 34.7758 25.6388C34.8256 25.7583 34.7393 25.8611 34.7061 25.964C34.4075 26.83 34.099 27.6959 33.7871 28.5586C33.6776 28.8605 33.5515 29.1558 33.3558 29.4179C33.0505 29.8227 32.6358 29.9123 32.168 29.8326C32.0352 29.8094 31.8992 29.7762 31.949 29.5672C31.9888 29.398 32.0485 29.3648 32.2277 29.3781C32.9808 29.4345 33.442 28.7643 33.1368 28.0775C32.7784 27.2679 32.4168 26.4617 32.0552 25.6488C32.4633 25.5227 32.6656 25.6554 32.8017 26.0337C33.0041 26.601 33.2662 27.1485 33.5449 27.7921V27.7955Z" fill="#008269"/>
<path d="M22.6295 22.9414C22.6792 22.9514 22.7589 22.9547 22.8252 22.9879C23.2333 23.1936 23.6447 23.396 24.0429 23.6249C24.3216 23.7841 24.3946 24.0429 24.2652 24.3349C24.1524 24.5904 23.8438 24.7131 23.5618 24.5838C23.1338 24.3847 22.7157 24.1591 22.3043 23.9235C22.0588 23.7808 22.0156 23.5386 22.1052 23.2798C22.1849 23.0542 22.364 22.9514 22.6295 22.9447V22.9414Z" fill="#008269"/>
<path d="M16.7 23.9504C17.1413 23.9437 17.4134 24.3784 17.1844 24.7599C16.9422 25.1647 16.6569 25.5463 16.3616 25.9145C16.1758 26.1468 15.9037 26.1667 15.6615 26.0108C15.4127 25.8515 15.3165 25.5927 15.4791 25.3339C15.7445 24.9092 16.0497 24.5044 16.3483 24.0997C16.4313 23.9869 16.5673 23.9371 16.7 23.947V23.9504Z" fill="#008269"/>
<path d="M15.9738 14.9451C15.9539 14.9153 15.9373 14.8887 15.9174 14.8589C15.9539 14.8423 15.9904 14.839 16.0036 14.8854C16.0069 14.902 15.9837 14.9252 15.9704 14.9451H15.9738Z" fill="#8BC6BA"/>
<path d="M21.3784 20.151C21.3751 21.2559 20.4926 22.1252 19.3844 22.1219C18.2762 22.1219 17.397 21.2493 17.3937 20.1444C17.3937 19.0197 18.2829 18.1371 19.4109 18.1471C20.5125 18.157 21.3817 19.0396 21.3751 20.151H21.3784Z" fill="white"/>
<path d="M28.4788 8.04121C29.2751 8.05116 29.9453 8.73796 29.9254 9.52761C29.9088 10.3239 29.2187 10.9808 28.4257 10.9576C27.646 10.9344 26.999 10.2708 26.999 9.49775C26.999 8.7081 27.6858 8.02794 28.4755 8.04121H28.4788Z" fill="white"/>
<path d="M22.6526 29.0368C23.4555 29.0501 24.0992 29.7236 24.0793 30.5299C24.0594 31.3162 23.4057 31.9565 22.626 31.9565C21.8065 31.9565 21.1529 31.2697 21.1761 30.437C21.1994 29.6606 21.8696 29.0236 22.6493 29.0368H22.6526Z" fill="white"/>
<path d="M41.7433 27.0022C41.7433 26.5112 41.7533 26.0201 41.74 25.5324C41.7334 25.3134 41.8064 25.2404 42.0287 25.2438C42.7785 25.2537 43.5317 25.2438 44.2815 25.2504C44.6531 25.2504 44.9949 25.3533 45.1508 25.7282C45.3001 26.0832 45.3134 26.4515 45.0048 26.7501C44.892 26.8596 44.9252 26.9027 45.028 26.979C45.3996 27.2477 45.4793 27.616 45.3565 28.0374C45.2337 28.4621 44.9385 28.7142 44.5038 28.7706C43.6511 28.8835 42.7885 28.7972 41.9325 28.8171C41.7201 28.8204 41.7433 28.6612 41.7433 28.5251C41.7433 28.0208 41.7433 27.5132 41.7433 27.0089V27.0022ZM42.9477 27.3008C43.2132 26.8994 43.4454 26.5344 43.973 26.6107C44.1853 26.6406 44.4043 26.541 44.4076 26.2524C44.4076 25.9272 44.1753 25.8974 43.9331 25.8907C43.5814 25.8841 43.2264 25.9007 42.8747 25.8841C42.6359 25.8742 42.5562 25.9505 42.5629 26.196C42.5795 26.7468 42.5761 27.2975 42.5629 27.8516C42.5595 28.0772 42.6093 28.19 42.8648 28.1767C43.2331 28.1602 43.6014 28.1834 43.9663 28.1701C44.381 28.1568 44.5503 28.0175 44.5337 27.7255C44.5138 27.344 44.2251 27.3141 43.9398 27.3075C43.608 27.2975 43.2762 27.3075 42.9444 27.3075L42.9477 27.3008Z" fill="white"/>
<path d="M49.2651 28.0907C48.9034 28.7145 48.4223 28.887 47.7986 28.8273C47.3274 28.7808 46.8497 28.8074 46.3752 28.824C46.1297 28.8306 46.0633 28.741 46.0633 28.5054C46.0733 27.5267 46.0865 26.5446 46.06 25.5658C46.05 25.171 46.2823 25.2539 46.5013 25.2473C46.7136 25.244 46.9193 25.1942 46.9027 25.5525C46.8729 26.2692 46.9094 26.9925 46.8862 27.7092C46.8762 28.0044 46.9558 28.1073 47.2644 28.0973C47.9147 28.0741 48.5683 28.0907 49.2617 28.0907H49.2651Z" fill="white"/>
<path d="M38.2728 27.3079C38.6378 26.7372 39.0558 26.495 39.6398 26.5979C39.9284 26.6477 40.0711 26.5382 40.0379 26.223C40.018 26.0405 40.0247 25.8547 40.0379 25.6722C40.0479 25.5329 39.9483 25.3172 40.1341 25.2674C40.3332 25.2143 40.5588 25.2442 40.7712 25.2674C40.8873 25.2807 40.8641 25.4068 40.8641 25.4964C40.8641 26.5083 40.8574 27.5203 40.8674 28.5322C40.8707 28.8939 40.6219 28.8043 40.4228 28.8109C40.2237 28.8175 40.0114 28.8507 40.0313 28.5256C40.0512 28.2502 40.018 27.9748 40.0346 27.6994C40.0545 27.4075 39.9616 27.2847 39.6497 27.3013C39.2151 27.3245 38.7771 27.3079 38.2728 27.3079Z" fill="white"/>
<path d="M37.9612 27.0788C37.9612 27.5532 37.9413 28.0277 37.9678 28.5021C37.9877 28.8406 37.792 28.8339 37.5664 28.8173C37.3706 28.8041 37.1251 28.9069 37.1317 28.5353C37.145 27.5267 37.145 26.5147 37.1317 25.5061C37.1284 25.1179 37.4038 25.2672 37.5796 25.2506C37.7654 25.234 37.9811 25.1809 37.9645 25.5194C37.9413 26.037 37.9579 26.5579 37.9579 27.0788H37.9612Z" fill="white"/>
<path d="M37.8615 19.2391C37.5695 19.2391 37.2775 19.2292 36.9889 19.2391C36.7699 19.2491 36.7367 19.1462 36.7533 18.9571C36.8097 18.3599 37.3041 17.9087 37.9013 17.9252C38.4686 17.9418 38.9232 18.4063 38.963 18.9936C38.9763 19.1761 38.9165 19.2424 38.7374 19.2358C38.4454 19.2258 38.1568 19.2358 37.8648 19.2358L37.8615 19.2391Z" fill="white"/>
<path d="M31.5277 26.9861C31.5211 27.6662 31.0964 28.081 30.4726 28.0312C30.2968 28.0179 30.1873 27.9814 30.1906 27.7691C30.2006 27.2781 30.2006 26.787 30.1906 26.2993C30.1873 26.1168 30.2935 26.0637 30.4328 26.0239C31.0533 25.8348 31.5344 26.2595 31.5277 26.9894V26.9861Z" fill="white"/>
<path d="M42.9479 27.3041C43.2797 27.3041 43.6115 27.2974 43.9432 27.3041C44.2286 27.314 44.5172 27.3406 44.5371 27.7221C44.5537 28.0141 44.3812 28.1501 43.9698 28.1667C43.6015 28.18 43.2332 28.1568 42.8683 28.1733C42.6128 28.1866 42.5597 28.0738 42.5663 27.8482C42.5796 27.2974 42.5829 26.7433 42.5663 26.1926C42.5597 25.9504 42.6393 25.8707 42.8782 25.8807C43.2299 25.8973 43.5816 25.8807 43.9366 25.8873C44.1788 25.8907 44.4111 25.9205 44.4111 26.249C44.4111 26.5376 44.1921 26.6372 43.9764 26.6073C43.4522 26.531 43.2166 26.8993 42.9512 27.2974L42.9479 27.3041Z" fill="#008269"/>
</svg>
