<svg width="130" height="24" viewBox="0 0 130 24" fill="none" xmlns="http://www.w3.org/2000/svg">
<mask id="mask0_2095_62886" style="mask-type:alpha" maskUnits="userSpaceOnUse" x="0" y="0" width="130" height="24">
<rect width="130" height="24" fill="#D9D9D9"/>
</mask>
<g mask="url(#mask0_2095_62886)">
<path d="M21.8794 9.3606L22.6093 16.6033H24.6121L25.7071 14.3224L26.7334 11.7876L26.8122 14.0817L27.0095 16.6033H29.0221L32.6031 9.3606H30.3932L29.2586 12.1256L28.3413 14.6928L28.3052 12.3662L28.144 9.3606H26.3781L25.0035 12.3693L24.0595 14.7025L24.1089 9.3606H21.8794Z" fill="#1D1E20"/>
<path d="M39.8056 10.7711C39.6559 10.3781 39.0792 9.19504 37.5504 9.25909C36.8752 9.28749 36.3794 9.46198 35.871 9.90169C35.7133 10.0381 35.4488 10.2607 35.3062 10.4332L35.405 9.36089H33.481C33.4022 10.6443 32.5405 15.317 31.646 19.5282H33.8163L34.3885 16.4869C34.3885 16.4869 36.2533 17.491 38.3448 15.853C40.4363 14.2153 40.0063 11.2973 39.8056 10.7711ZM37.7589 12.2148C37.7179 12.7342 37.5119 14.2032 36.4916 14.8929C35.5182 15.5511 34.844 14.9092 34.775 14.8278C34.775 14.8278 34.9593 11.655 36.3419 11.0958C37.1398 10.7735 37.5137 11.2205 37.6619 11.5747C37.7463 11.7769 37.7764 11.9971 37.7589 12.2148Z" fill="#1D1E20"/>
<path d="M48.2176 10.6797C48.0014 10.0828 47.5245 9.62093 46.9205 9.40765C45.2578 8.8201 43.9183 10.267 43.9183 10.267L44.767 6.17285H42.6162L41.077 13.6984C40.3864 16.7497 42.9912 16.7788 42.9912 16.7788C46.1086 17.0714 47.3812 14.9168 47.3812 14.9168C48.6209 12.8966 48.5098 11.4885 48.2176 10.6797ZM46.1282 12.4264C46.0963 12.8616 45.8882 13.66 45.46 14.3054C45.46 14.3054 44.6881 15.3887 43.755 15.1782C43.6205 15.1477 43.4978 15.075 43.4137 14.9663C43.282 14.7956 43.1376 14.4636 43.2049 13.8542C43.2049 13.8542 43.303 11.8385 44.6419 11.099C45.0178 10.8912 45.4656 10.9487 45.72 11.1551C46.0904 11.4559 46.1629 11.9538 46.1282 12.4264Z" fill="#1D1E20"/>
<path d="M53.5476 9.25274C50.7165 9.1693 49.7052 11.7092 49.7052 11.7092C48.5903 14.3901 49.9172 15.8231 49.9172 15.8231C51.4267 17.7533 55.1461 16.2327 55.1461 16.2327L55.0077 14.6826C51.1997 16.0959 51.2985 13.8538 51.2985 13.8538C51.2985 13.8538 52.3293 13.8853 53.2368 13.7855C56.1276 13.4687 56.034 11.5583 56.034 11.5583C56.034 11.5583 56.1984 9.33065 53.5476 9.25274ZM54.0214 11.4901C53.9523 11.9481 53.6118 12.0458 53.6118 12.0458C53.6118 12.0458 53.0497 12.3626 51.5203 12.3089C51.5203 12.3089 51.8833 10.6266 53.431 10.8416C53.5739 10.8617 53.7116 10.9153 53.8227 11.006C53.9436 11.1047 54.0557 11.2609 54.0214 11.4901Z" fill="#1D1E20"/>
<path d="M90.0098 9.25274C87.1786 9.1693 86.1674 11.7092 86.1674 11.7092C85.0525 14.3901 86.3794 15.8231 86.3794 15.8231C87.8889 17.7533 91.6083 16.2327 91.6083 16.2327L91.4699 14.6826C87.6618 16.0959 87.7606 13.8538 87.7606 13.8538C87.7606 13.8538 88.7915 13.8853 89.699 13.7855C92.5897 13.4687 92.4962 11.5583 92.4962 11.5583C92.4962 11.5583 92.6605 9.33065 90.0098 9.25274ZM90.4835 11.4901C90.4145 11.9481 90.0739 12.0458 90.0739 12.0458C90.0739 12.0458 89.5119 12.3626 87.9824 12.3089C87.9824 12.3089 88.3454 10.6266 89.8931 10.8416C90.0361 10.8617 90.1738 10.9153 90.2849 11.006C90.4057 11.1047 90.5179 11.2609 90.4835 11.4901Z" fill="#1D1E20"/>
<path d="M60.1867 9.42898C58.0462 9.95524 57.2172 11.8076 57.2172 11.8076C56.3097 13.6498 56.9509 15.1608 56.9509 15.1608C57.1681 15.775 57.8191 16.5062 59.0819 16.6035C60.3448 16.7011 61.1636 15.5215 61.1636 15.5215C60.8479 19.499 56.9807 17.6564 56.9807 17.6564L56.4873 19.2746C57.1089 19.6451 58.5788 19.7524 58.5788 19.7524C61.9825 19.8598 62.5347 17.7831 62.7421 17.4126C62.9492 17.0422 64.3108 9.75062 64.3108 9.75062C62.081 8.89267 60.1867 9.42898 60.1867 9.42898ZM61.5879 12.9383C61.4839 13.5252 61.2502 13.9542 61.0662 14.2249C60.8703 14.5123 60.5865 14.7335 60.2558 14.8488C59.1433 15.2369 59.0031 13.9812 59.0031 13.9812C59.0031 13.9812 58.7564 12.7043 59.7134 11.6126C60.6703 10.5206 61.9625 11.0081 61.9625 11.0081L61.5879 12.9383Z" fill="#1D1E20"/>
<path d="M68.8205 7.45943C68.79 8.07779 68.2473 8.52719 67.6712 8.53654C66.8594 8.5497 66.4858 8.09129 66.4858 7.47224C66.4858 6.85319 67.0598 6.24383 67.8096 6.28953C68.4386 6.32796 68.8534 6.78983 68.8205 7.45943Z" fill="#1D1E20"/>
<path d="M66.1883 9.3606H68.3716L66.9511 16.6033H64.7808L66.1883 9.3606Z" fill="#1D1E20"/>
<path d="M68.741 16.6035H70.9113L71.5385 13.2919C71.6285 12.8158 71.7953 12.356 72.0427 11.9381C72.2894 11.5216 72.6373 11.1006 73.0683 11.0078C73.623 10.8887 73.8633 11.1529 73.9664 11.3765C74.0221 11.4977 74.0449 11.631 74.0406 11.7643C74.0319 12.0313 73.979 12.7625 73.6867 14.1273C73.3052 15.908 73.2001 16.6035 73.2001 16.6035H75.3441L76.0708 13.1329C76.0708 13.1329 76.7383 10.3579 75.6598 9.65613C75.2779 9.40754 74.7502 9.29987 74.369 9.28255C73.6289 9.24897 73.0175 9.52284 72.4509 9.99474C72.2466 10.1651 72.0308 10.3777 71.8447 10.6311L71.9761 9.36046H70.0294C70.0301 9.3608 68.7802 17.0522 68.741 16.6035Z" fill="#1D1E20"/>
<path d="M77.0923 16.6035H79.2626L79.8898 13.2919C79.9799 12.8158 80.1466 12.356 80.394 11.9381C80.6407 11.5216 80.9886 11.1006 81.4196 11.0078C81.9743 10.8887 82.2147 11.1529 82.3177 11.3765C82.3734 11.4977 82.3962 11.631 82.392 11.7643C82.3832 12.0313 82.3303 12.7625 82.0381 14.1273C81.6565 15.908 81.5514 16.6035 81.5514 16.6035H83.6954L84.4221 13.1329C84.4221 13.1329 85.0896 10.3579 84.0111 9.65613C83.6292 9.40754 83.1015 9.29987 82.7203 9.28255C81.9803 9.24897 81.3688 9.52284 80.8022 9.99474C80.598 10.1651 80.3821 10.3777 80.1961 10.6311L80.3275 9.36046H78.3807C78.3814 9.3608 77.1319 17.0522 77.0923 16.6035Z" fill="#1D1E20"/>
<path d="M94.168 9.36034H96.0756L95.9179 10.8907C95.9179 10.8907 96.8124 9.05808 98.6541 9.27898L98.2596 11.3588C98.2596 11.3588 96.2732 10.917 95.7339 13.5033C95.1947 16.09 95.1288 16.6034 95.1288 16.6034H92.9585C92.9578 16.6031 94.0367 11.8071 94.168 9.36034Z" fill="#1D1E20"/>
<path d="M17.8644 14.663C18.4408 15.3243 18.7817 16.1435 18.7817 17.0312C18.7817 19.2232 16.7011 21 14.1348 21C12.4105 21 10.9056 20.1978 10.1039 19.0068C9.88805 19.0196 9.66976 19.0258 9.45007 19.0258C9.21635 19.0258 8.98475 19.0185 8.75559 19.0043C7.95424 20.1968 6.44861 21 4.72328 21C2.15666 21 0.0763854 19.2232 0.0763854 17.0312C0.0763854 16.131 0.427128 15.3011 1.01859 14.635C0.367211 13.5471 0 12.3166 0 11.0131C0 6.5876 4.23098 3 9.45007 3C14.6692 3 18.9001 6.5876 18.9001 11.0131C18.9001 12.3277 18.5266 13.5682 17.8644 14.663Z" fill="#1D1E20"/>
<path d="M5.50381 8.98047H3.92529V11.2032H5.50381V8.98047Z" fill="white"/>
<path d="M13.3772 8.98047H6.70605V11.2032H13.3772V8.98047Z" fill="white"/>
<path d="M5.22607 12.5378C5.22607 12.5378 8.28429 15.3063 12.8622 13.9612V14.9164C12.8622 14.9164 9.5867 16.9245 5.22607 13.571V12.5378Z" fill="white"/>
</g>
</svg>
